<?xml version="1.0" encoding="UTF-8"?>
<svg width="1920px" height="1080px" viewBox="0 0 1920 1080" version="1.1" xmlns="http://www.w3.org/2000/svg" xmlns:xlink="http://www.w3.org/1999/xlink">
    <title>anime-jikan-logo-light</title>
    <defs>
        <filter x="-0.8%" y="-2.7%" width="101.7%" height="105.4%" filterUnits="objectBoundingBox" id="filter-1">
            <feOffset dx="0" dy="2" in="SourceAlpha" result="shadowOffsetOuter1"></feOffset>
            <feGaussianBlur stdDeviation="2" in="shadowOffsetOuter1" result="shadowBlurOuter1"></feGaussianBlur>
            <feColorMatrix values="0 0 0 0 0   0 0 0 0 0   0 0 0 0 0  0 0 0 0.5 0" type="matrix" in="shadowBlurOuter1" result="shadowMatrixOuter1"></feColorMatrix>
            <feMerge>
                <feMergeNode in="shadowMatrixOuter1"></feMergeNode>
                <feMergeNode in="SourceGraphic"></feMergeNode>
            </feMerge>
        </filter>
        <linearGradient x1="119.566891%" y1="59.0040106%" x2="22.9205982%" y2="57.6438841%" id="linearGradient-2">
            <stop stop-color="#F58B3A" offset="0%"></stop>
            <stop stop-color="#000000" offset="100%"></stop>
        </linearGradient>
        <linearGradient x1="103.22074%" y1="80.7311096%" x2="29.2834523%" y2="76.0889343%" id="linearGradient-3">
            <stop stop-color="#F58B3A" offset="0%"></stop>
            <stop stop-color="#000000" offset="100%"></stop>
        </linearGradient>
        <linearGradient x1="119.566891%" y1="57.0467113%" x2="22.9205982%" y2="55.9822503%" id="linearGradient-4">
            <stop stop-color="#F58B3A" offset="0%"></stop>
            <stop stop-color="#000000" offset="100%"></stop>
        </linearGradient>
        <linearGradient x1="107.851123%" y1="80.7311096%" x2="27.4810432%" y2="76.0889343%" id="linearGradient-5">
            <stop stop-color="#F58B3A" offset="0%"></stop>
            <stop stop-color="#000000" offset="100%"></stop>
        </linearGradient>
        <linearGradient x1="119.566891%" y1="50.6412823%" x2="22.9205982%" y2="50.5444116%" id="linearGradient-6">
            <stop stop-color="#F58B3A" offset="0%"></stop>
            <stop stop-color="#000000" offset="100%"></stop>
        </linearGradient>
        <linearGradient x1="119.566891%" y1="50.6379239%" x2="22.9205982%" y2="50.5415605%" id="linearGradient-7">
            <stop stop-color="#F58B3A" offset="0%"></stop>
            <stop stop-color="#000000" offset="100%"></stop>
        </linearGradient>
        <linearGradient x1="101.570791%" y1="50%" x2="0%" y2="50%" id="linearGradient-8">
            <stop stop-color="#F58B3A" offset="0%"></stop>
            <stop stop-color="#000000" offset="100%"></stop>
        </linearGradient>
        <path d="M248.130475,200.567376 L248.130475,26.3602837 L384.71726,200.567376 L396.743769,200.567376 L396.743769,-9.9475983e-14 L382.14015,-9.9475983e-14 L382.14015,174.207092 L245.839711,-9.9475983e-14 L233.526856,-9.9475983e-14 L233.526856,200.567376 L248.130475,200.567376 Z M481.21568,200.567376 L481.21568,-9.9475983e-14 L466.612061,-9.9475983e-14 L466.612061,200.567376 L481.21568,200.567376 Z M565.401245,200.567376 L565.401245,29.5120567 L649.300465,173.920567 L656.459102,173.920567 L740.358322,28.9390071 L740.644667,200.567376 L754.96194,200.567376 L754.675595,-9.9475983e-14 L742.649085,-9.9475983e-14 L653.022956,155.009929 L563.396827,-9.9475983e-14 L551.083972,-9.9475983e-14 L551.083972,200.567376 L565.401245,200.567376 Z M963.13509,200.567376 L963.13509,187.387234 L824.830232,187.387234 L824.830232,105.15461 L946.240708,105.15461 L946.240708,92.2609929 L824.830232,92.2609929 L824.830232,13.7294758 L958.839908,13.1801418 L958.839908,-9.9475983e-14 L824.830232,-9.9475983e-14 L824.830232,200.567376 L963.13509,200.567376 Z M1108.02589,202 C1125.97021,202 1139.52389,196.938061 1148.68695,186.814184 C1157.85,176.690307 1162.43153,161.6 1162.43153,141.543262 L1162.43153,141.543262 L1162.43153,-9.9475983e-14 L1073.95078,-9.9475983e-14 L1073.95078,13.1801418 L1147.82791,13.1801418 L1147.82791,141.543262 C1147.82791,157.588652 1144.53494,169.479433 1137.94899,177.215603 C1131.36305,184.951773 1121.38868,188.819858 1108.02589,188.819858 C1099.05374,188.819858 1090.79744,186.670922 1083.25701,182.37305 C1075.71658,178.075177 1069.17836,171.819385 1063.64235,163.605674 L1063.64235,163.605674 L1054.76564,173.347518 C1060.49255,182.325296 1068.0807,189.345154 1077.5301,194.407092 C1086.9795,199.469031 1097.14477,202 1108.02589,202 Z M1245.18537,200.567376 L1245.18537,-9.9475983e-14 L1230.58175,-9.9475983e-14 L1230.58175,200.567376 L1245.18537,200.567376 Z M1329.65728,200.567376 L1329.65728,147.846809 L1374.61352,101.716312 L1460.8035,200.567376 L1478.55692,200.567376 L1384.34926,91.1148936 L1472.54366,-9.9475983e-14 L1454.79025,-9.9475983e-14 L1329.65728,128.93617 L1329.65728,-9.9475983e-14 L1315.05366,-9.9475983e-14 L1315.05366,200.567376 L1329.65728,200.567376 Z M1491.15612,200.567376 L1574.91217,11.2826968 L1658.66821,200.567376 L1674.41721,200.567376 L1582.21398,-9.9475983e-14 L1567.61036,-9.9475983e-14 L1475.40712,200.567376 L1491.15612,200.567376 Z M15.7490003,200.567376 L99.5050475,11.2826968 L183.261095,200.567376 L199.010095,200.567376 L106.806857,-1.98951966e-13 L92.2032383,-1.98951966e-13 L0,200.567376 L15.7490003,200.567376 Z M1725.38671,200.567376 L1725.38671,26.3602837 L1861.97349,200.567376 L1874,200.567376 L1874,-9.9475983e-14 L1859.39638,-9.9475983e-14 L1859.39638,174.207092 L1723.09594,-9.9475983e-14 L1710.78309,-9.9475983e-14 L1710.78309,200.567376 L1725.38671,200.567376 Z" id="path-9"></path>
        <filter x="-0.4%" y="-2.5%" width="100.7%" height="106.9%" filterUnits="objectBoundingBox" id="filter-10">
            <feOffset dx="0" dy="2" in="SourceAlpha" result="shadowOffsetOuter1"></feOffset>
            <feGaussianBlur stdDeviation="2" in="shadowOffsetOuter1" result="shadowBlurOuter1"></feGaussianBlur>
            <feColorMatrix values="0 0 0 0 0   0 0 0 0 0   0 0 0 0 0  0 0 0 0.5 0" type="matrix" in="shadowBlurOuter1"></feColorMatrix>
        </filter>
    </defs>
    <g id="anime-jikan-logo-light" stroke="none" stroke-width="1" fill="none" fill-rule="evenodd">
        <g id="Group-2-Copy" transform="translate(23.000000, 167.000000)" fill-rule="nonzero">
            <g id="Group" filter="url(#filter-1)" transform="translate(220.000000, 303.000000)">
                <path d="M162.105569,31.0248045 C123.845396,42.8621338 80.3848435,65.867933 52.0110677,89.4387146 C42.7511712,97.2565951 43.2803317,99.1501961 52.6278151,91.7761888 C69.2091482,78.8278695 101.045638,59.4944557 122.341619,49.3066696 C133.911334,43.8005118 138.844342,42.9829041 129.651846,48.0205506 C118.406276,54.3853151 90.1358572,73.0168574 78.8834931,81.6881169 C66.4403359,91.3623266 41.1534025,115.708071 38.4361717,120.70104 C37.5401654,122.41409 37.5379333,123.183245 38.2223725,122.741308 C39.026085,122.121725 43.8777663,118.553313 48.9972062,114.778696 C60.4276555,106.226029 91.3746897,86.2986867 93.7523939,85.830611 C94.6437904,85.6553851 90.5012473,90.4673194 84.6025997,96.5474629 C52.8185166,128.628316 27.9214297,161.966244 9.46345707,197.418016 C4.26758611,207.048662 0.204108928,215.380118 0.262032446,215.675873 C0.321205525,215.972111 3.62396097,213.938136 7.58186808,211.314588 C11.3618841,208.571965 17.073615,205.449363 20.1062069,204.390747 C26.5879743,202.038751 26.7951258,202.305462 40.9237357,226.114396 C46.2735217,235.20581 51.891212,244.090536 53.4896115,245.927503 C55.9464109,248.97895 56.0070666,248.506034 53.6541099,240.515347 L51.0056385,231.814561 L61.664547,243.549369 C67.5568864,249.92091 79.902024,263.936558 89.1085919,274.574026 C98.3146747,285.211493 106.012614,293.686713 106.251354,293.331905 C106.490095,292.977581 103.952745,287.175282 100.437625,280.335665 C96.9521045,273.644167 94.2662692,267.871395 94.5045249,267.517071 C94.7432658,267.162262 96.9365767,268.882574 99.3050613,271.490147 C101.673546,274.098205 103.866371,275.818032 104.105112,275.463708 C104.343853,275.109384 102.366962,270.580135 99.6491005,265.427914 C86.0923042,239.046742 79.5958339,215.579547 80.2480042,195.469234 C80.7584827,183.22569 85.8690912,172.382502 103.679067,145.358512 C121.398786,118.659804 138.558532,100.832752 165.108755,81.3100744 C183.562651,67.6855382 193.466517,63.1224053 217.482301,57.3176859 C245.629467,50.5458359 280.742336,48.5505846 309.097187,52.1896674 C328.722952,54.6273398 389.68729,69.3680937 402.977686,74.897389 C427.511712,84.9762639 456.321724,105.741012 477.997167,128.678657 C486.793702,138.014032 486.968391,138.132624 484.787696,132.567993 C482.754517,126.973835 474.790663,117.93615 463.028791,107.648166 C458.14091,103.230732 457.904596,102.816386 461.551703,104.864882 C463.92504,105.934631 476.821417,114.154757 490.311734,123.026413 L514.768121,138.960832 L506.635402,127.497576 C502.2876,121.129908 494.678946,111.560253 489.913833,106.196986 C476.206125,90.7587171 476.295895,90.433436 491.204586,101.023951 C517.053629,119.297781 511.220974,112.453324 471.727307,78.2683085 C459.787349,67.8617322 449.329332,58.7001307 448.500533,57.6337701 C446.368363,55.4405426 473.602296,66.6782316 496.294815,77.5814425 L514.205236,86.1965523 L502.704911,78.7780124 C481.80392,65.2173707 436.473231,46.7833205 393.502292,34.0330258 C339.402241,18.0943951 285.065876,11.8856881 236.818374,16.1598436 C219.824582,17.6615098 179.139636,25.8262601 162.105569,31.0248045 Z" id="Path" fill="url(#linearGradient-2)"></path>
                <path d="M253.103222,85.1950542 C233.302283,92.014341 219.942497,100.178317 206.925294,113.193435 C199.180772,120.866585 186.663372,135.628153 186.897745,136.811653 C186.985575,137.255042 190.727305,137.440917 195.273087,137.006725 C206.800586,135.966503 216.35556,139.003913 220.496162,145.105354 C224.429565,150.940085 225.497105,161.796827 223.239257,172.232446 C222.066418,177.227835 222.14988,179.210017 223.545932,179.242448 C232.929615,179.853803 234.917667,180.538249 236.007529,183.705383 C237.746164,188.588957 232.128959,199.993159 225.760109,204.475455 C218.467835,209.754013 217.101383,209.869217 214.05501,205.396601 C212.575496,203.382472 211.303667,201.63457 211.096467,201.368343 C210.889267,201.101632 208.836192,202.427927 206.544376,204.10903 C202.167459,207.737464 189.922282,210.609812 183.86593,209.650427 C177.958063,208.661514 167.551967,202.10313 163.408939,196.770842 L159.56094,192.148655 L157.28077,200.129177 C150.977427,222.889176 151.079814,249.152723 157.891694,276.554755 C176.507178,351.125457 228.393537,403.467162 287.371764,406.610094 C298.923524,407.255816 321.955715,402.720758 334.207685,397.54143 C364.808254,384.445476 394.136508,359.457398 414.152896,329.539762 C435.481389,297.673343 443.821793,268.824972 441.213597,236.138089 C439.201768,212.709618 426.488814,171.867957 413.695309,148.564371 C388.817244,103.201205 354.759299,79.3196636 309.859023,76.3253345 C299.049688,75.5334298 265.947678,80.6677409 253.103222,85.1950542 Z M274.892698,202.332569 C279.647622,201.396418 300.037164,217.055897 301.120232,222.529527 C301.647209,225.192766 295.563683,223.316591 289.10215,218.74765 C280.890821,213.140422 276.49595,212.776417 270.275585,217.228703 C262.715456,222.71395 262.70478,236.702975 270.517722,246.538857 C275.667151,253.056581 289.034216,262.875038 296.718568,265.81951 C302.207668,267.812825 302.504638,267.754255 310.357371,263.748747 C326.450061,255.353879 336.250085,245.58528 339.102359,235.032521 C341.234044,227.081527 339.556549,221.724553 333.570072,217.216118 C329.064565,213.953141 323.686101,214.858797 313.660924,220.367763 C309.466459,222.576964 305.600992,224.10656 305.038106,223.602664 C302.932625,222.32671 307.584191,216.184608 314.668779,210.639339 C323.658442,203.797302 332.276892,202.100225 338.592366,205.929056 C360.562353,219.433063 345.220338,255.807918 311.708295,269.016171 C303.828389,272.104406 301.719025,272.366277 297.475066,271.20359 C282.755135,267.031569 260.888505,248.588806 256.734316,236.956617 C254.230448,229.764128 254.614763,220.00521 257.962473,212.736725 C260.204794,207.683734 267.260268,201.99083 270.585657,202.411953 C271.862338,202.621547 273.703846,202.566365 274.892698,202.332569 Z M223.412975,235.524799 L228.613839,234.501035 L233.241628,257.106622 C236.929981,275.747361 238.66619,281.400089 243.273114,290.637686 C249.800154,303.339624 254.179497,309.086742 250.552285,300.117308 C245.125782,286.737701 242.22013,254.109389 246.121506,250.420449 C246.657218,250.007555 248.50843,257.020945 250.44262,266.016034 C253.106619,279.478897 254.608455,283.948125 258.629686,290.226728 C265.726891,301.126067 275.804475,308.364056 288.121954,311.318209 C297.026699,313.407366 299.966803,313.443186 312.44878,310.985667 C324.930271,308.528149 327.368631,307.586673 333.917994,302.454782 C337.907199,299.209716 342.851368,294.547353 344.78944,291.859911 C352.781438,280.756788 358.938236,257.257161 356.684269,245.865545 C355.952519,242.166924 356.28103,241.487318 357.643115,242.909939 C362.67754,248.067001 364.171612,275.900805 360.409986,292.780573 C358.032767,303.393354 359.611272,302.006553 365.828726,288.178232 C372.314521,274.143706 377.034992,254.308333 378.934729,234.259978 C379.762558,225.182117 380.705876,217.464919 381.093102,217.081068 C382.286321,215.308963 393.575079,224.767771 399.019536,231.996079 C407.541423,243.075484 412.225015,256.601758 412.984424,271.361874 C413.351755,277.89896 413.360975,284.967533 413.266352,286.830638 C413.140188,289.314779 413.642418,290.291591 414.979755,290.028268 C418.397341,289.35544 425.005418,294.663524 425.824998,298.806019 C426.849837,303.983894 421.60433,310.242652 415.214614,311.50118 C411.202602,312.291149 410.160294,313.264572 409.286852,317.433204 C407.839849,324.942261 393.643013,345.260232 382.532826,356.208943 C377.08206,361.432319 367.556686,368.687735 361.189776,372.400393 C350.241661,378.706587 348.784953,379.147072 320.849355,384.647325 C286.970465,391.318492 281.089772,391.246853 262.755731,383.636146 C224.100568,367.730769 204.278278,351.036876 194.992615,326.73518 C190.158112,314.007587 185.960736,286.551826 187.151044,275.404654 C188.370952,264.405118 193.602871,252.615128 201.171735,244.054232 C206.475956,238.091228 208.261176,236.971622 212.836073,236.685549 C215.747062,236.57325 220.589815,236.080972 223.412975,235.524799 Z" id="Shape" fill="url(#linearGradient-3)"></path>
                <path d="M983.5495,16.0691328 C935.39371,29.3937036 896.797262,44.2175203 858.661797,63.7153657 C839.892491,73.405549 821.477414,84.1020709 822.394528,84.8436344 C822.748758,85.0808186 825.723314,83.7269326 828.760953,81.8996465 C844.914784,72.2627086 883.608282,54.0382517 881.822578,56.6961665 C881.225725,57.5819768 867.798975,68.5258478 852.047897,81.0031871 C825.107052,102.447056 823.796889,103.627168 831.051313,101.276625 C841.071638,98.0741544 841.299703,100.026809 832.735116,115.239995 C826.790855,125.785978 826.402658,126.938499 829.556756,125.703206 C832.856427,124.438385 833.031116,124.556977 832.133411,127.80882 C831.415247,129.640947 827.499314,137.943361 823.258266,146.156225 C818.866792,154.398617 815.489481,161.518983 815.635072,162.25861 C815.756366,162.850602 819.00266,159.752203 822.729348,155.176 C829.581018,146.908922 851.14534,127.13938 857.599109,123.10144 C859.651698,121.774661 855.98324,128.184926 848.554128,139.023275 C837.369213,155.059345 828.144691,170.862587 833.210657,165.253907 C834.22482,164.132365 840.901802,156.515849 847.787439,148.397374 C873.146383,118.964271 887.621265,105.508668 910.233717,91.0646363 C940.406299,71.9049961 988.489302,52.7535848 1024.86818,45.4374698 C1084.30108,33.734077 1155.91365,43.7654183 1215.71049,72.1082968 C1234.13042,80.9320319 1266.86024,102.000763 1282.92188,115.285012 C1320.99426,146.982982 1340.22455,173.938236 1346.22704,204.265862 C1348.47858,215.657479 1348.58533,219.32512 1346.47452,230.500367 C1343.93668,244.986995 1337.17235,264.610838 1327.72462,285.530482 C1324.04646,293.478572 1322.37236,298.266304 1323.94941,296.110832 C1325.56042,294.102995 1330.71859,287.400364 1335.36724,281.258263 C1347.32855,265.224129 1349.4054,265.583778 1342.70416,282.427726 C1340.42835,288.101268 1338.66206,293.214281 1338.77852,293.805789 C1338.86586,294.249662 1343.8736,287.576074 1349.87124,278.864155 C1355.98533,269.975073 1360.69707,264.128725 1360.36225,265.577485 C1360.21182,267.144837 1359.78966,269.687064 1359.60527,271.106296 C1359.30441,272.703175 1362.57982,268.983256 1366.75779,262.781616 C1375.19621,250.821241 1378.65116,247.989069 1374.35189,256.675334 C1368.76185,268.227655 1370.46021,266.663692 1383.19306,248.324515 C1396.91581,228.715193 1407.6446,215.843354 1417.16997,207.818784 L1422.85705,203.010238 L1433.82361,211.610342 L1430.12603,206.190442 C1418.06282,188.123301 1396.42086,163.026312 1371.57143,138.099709 C1364.28789,130.927066 1357.68369,124.080672 1356.70835,123.043354 C1353.7435,119.783766 1369.51884,129.281782 1386.14821,140.763432 L1402.06912,151.769745 L1390.21942,141.038372 C1365.00605,118.181563 1342.21891,99.7659068 1321.64934,85.5256599 L1300.0365,70.7210115 L1314.75885,74.8930326 C1332.44606,80.0181468 1354.06861,90.2088371 1375.73969,103.771415 C1393.65011,114.693504 1392.3448,113.566637 1367.38861,95.1170972 C1338.28357,73.6422491 1303.14207,55.2004541 1247.60569,32.0126524 C1225.89094,22.9160588 1195.14577,14.2142074 1168.31168,9.66138468 C1147.37818,6.09713593 1149.40165,5.39163405 1173.65909,7.83908421 C1217.72426,12.0738381 1290.83138,29.6501529 1326.48724,44.4550917 C1339.09878,49.6576054 1339.92855,49.9552957 1339.57917,48.1802869 C1339.1376,45.9609208 1308.54285,35.6919113 1274.86195,26.1852795 C1200.19233,5.38180784 1133.29634,-2.6578399 1070.87918,1.79309524 C1053.23565,3.1158907 997.60707,12.2247647 983.5495,16.0691328 Z" id="Path" fill="url(#linearGradient-4)"></path>
                <path d="M1032.32641,75.3248046 C1020.24864,80.6227244 1014.59552,84.8107191 1002.71186,96.5266488 C990.051794,109.010281 972.335471,133.40201 977.692584,130.810894 C979.652977,129.809396 985.155664,127.957907 989.969302,126.54884 C998.145693,124.170705 999.392775,124.23218 1004.43448,127.082262 C1016.20654,133.525442 1022.46136,147.20274 1018.95303,159.11471 L1017.36143,165.114985 L1020.92798,165.181784 C1022.97572,165.393313 1025.52811,166.581655 1026.71211,167.885683 C1031.21034,173.455155 1014.57126,195.483271 1006.91408,194.224743 C1005.45835,193.896558 1003.65323,191.792879 1002.56143,189.394899 C1001.1154,185.99058 1000.2274,185.397136 998.470808,186.664861 C997.102415,187.549219 993.32235,189.522688 990.080909,191.083263 C977.915797,196.706464 963.795145,191.648633 957.86059,179.598225 L954.992787,173.70686 L951.091411,187.540022 C946.29233,204.624543 943.385708,224.256615 943.065446,241.380344 C942.56079,261.46113 954.745312,321.467271 962.979932,340.442973 C980.123665,379.490263 1004.6771,402.167974 1039.67303,411.263261 C1063.44522,417.495396 1082.77741,418.453813 1107.91799,414.426039 C1138.31379,409.66977 1164.6044,398.191509 1192.46236,377.488719 C1265.54037,323.136758 1286.05656,242.704703 1247.17382,162.441097 C1233.05802,133.249534 1212.72137,109.278928 1185.98433,90.4116537 C1160.46526,72.2268889 1133.1993,62.3793896 1107.8355,62.14753 C1092.50659,61.9374526 1042.9727,70.6154887 1032.32641,75.3248046 Z M1072.21361,198.889526 C1082.39406,201.188761 1094.09334,211.949661 1095.7917,220.530403 C1096.55354,224.376659 1092.54055,225.166628 1090.5656,221.406532 C1087.93557,216.698185 1078.50724,210.407964 1073.84403,210.250164 C1063.47918,210.139316 1058.40351,218.823645 1061.06751,232.286509 C1063.14436,242.790379 1070.48613,252.565755 1082.04469,260.280533 L1091.29347,266.451678 L1101.66803,263.486876 C1116.17687,259.554943 1126.85713,252.686284 1131.96192,244.150074 C1135.57215,238.212725 1135.93608,236.143414 1134.76179,230.225427 C1132.85962,220.609303 1128.03143,217.256778 1118.66618,219.100522 C1114.80363,219.860963 1109.74737,221.624839 1107.2532,223.039231 C1098.53334,228.137238 1098.90698,221.453969 1107.78212,214.019456 C1117.3075,205.99537 1128.15274,204.628415 1136.51352,210.206599 C1142.55969,214.241634 1142.79746,214.656465 1143.99116,223.797736 C1145.53424,234.7145 1143.20021,240.861443 1133.93202,250.985818 C1125.64887,259.841016 1114.9395,265.792403 1101.35747,268.928074 L1090.15314,271.59567 L1079.00705,263.645644 C1064.77964,253.381862 1057.64653,244.641868 1054.25951,233.780285 C1049.14017,217.265975 1053.82279,200.358616 1064.25558,197.689568 C1065.14843,197.513858 1068.6519,198.053573 1072.21361,198.889526 Z M1013.52313,239.342012 C1015.5272,265.077462 1026.34332,304.90988 1033.36483,312.289212 C1034.13152,313.059819 1032.84562,305.781169 1030.76391,296.046453 C1026.28024,276.486989 1025.43106,262.052154 1027.89611,250.345421 C1029.46346,243.428356 1034.80601,234.537338 1036.61113,235.871862 C1037.11578,236.080004 1036.62568,241.40261 1035.66004,247.433864 C1031.17637,277.059619 1040.82791,297.753695 1066.21112,312.89137 C1071.78659,316.097712 1082.07865,320.52628 1089.23118,322.345821 C1099.85806,325.326113 1103.92442,325.601053 1113.55169,324.320258 C1128.14303,322.370023 1134.65989,317.858684 1143.40401,303.533244 C1150.89136,291.452341 1159.31037,266.123977 1160.98932,250.422869 C1162.84781,234.840353 1165.54093,239.075301 1165.87089,257.915952 C1166.11837,275.543576 1163.89594,293.195887 1160.00427,303.952915 L1157.01031,312.227738 L1162.14421,303.839163 C1167.39456,295.273427 1174.58591,273.876026 1177.36151,258.26592 C1178.26892,253.476252 1179.6082,241.530883 1180.47194,231.831503 L1182.09266,214.296816 L1190.45344,219.874516 C1195.10695,223.10845 1201.77423,229.481443 1205.50091,234.280792 C1211.74603,242.427342 1212.33318,243.848511 1214.93895,257.784291 C1216.98668,268.909196 1217.34576,276.984107 1216.65672,289.877729 L1215.62799,307.29576 L1218.63652,303.78253 C1225.40084,295.841216 1238.01238,299.505954 1240.09409,310.009824 C1241.17133,316.252608 1240.00674,319.710172 1235.36294,323.545295 C1229.10812,328.6191 1216.67613,324.3038 1215.12334,316.46317 C1214.80308,314.835796 1212.74078,320.006895 1210.6057,327.958373 C1208.47547,335.909851 1205.24373,344.538998 1203.27364,347.078321 C1199.00833,352.836572 1187.95928,363.312367 1178.49214,370.863536 C1153.87562,390.005751 1101.87668,408.083541 1076.246,406.520545 C1044.35565,404.500608 1014.37716,386.424754 991.716187,355.380735 C983.433042,343.947006 980.817567,333.85603 980.259534,311.524898 C979.667534,279.670581 995.811661,232.531438 1008.29218,230.07392 L1012.75159,229.195854 L1013.52313,239.342012 Z" id="Shape" fill="url(#linearGradient-5)"></path>
                <path d="M194.984851,411.736177 C204.531091,417.849236 207.138317,420.102969 204.317098,419.889503 C202.119905,419.707501 199.269572,419.3464 198.02249,419.284442 C196.774923,419.222968 199.296745,420.26319 203.56982,421.573995 C215.914472,425.444937 246.527172,428.793591 267.022012,428.600455 C292.269349,428.240322 328.377457,421.130606 352.879457,411.541105 C362.364556,407.982858 375.415726,403.722256 381.953928,402.434685 C408.909816,396.665785 400.534474,396.470713 367.490693,401.901263 C310.108925,411.509158 256.75033,416.48228 230.023963,414.8278 C216.571495,413.941505 198.494634,409.969397 186.775949,405.359795 C184.076527,404.200981 187.750807,407.166267 194.984851,411.736177 Z" id="Path" fill="url(#linearGradient-6)"></path>
                <path d="M978.832912,413.558622 C1048.33466,434.765307 1082.08836,441.491656 1125.94972,443.152914 C1137.59562,443.473838 1207.69423,431.822771 1215.15731,428.20063 C1218.25317,426.669098 1212.22157,427.395656 1196.29095,430.378368 L1172.96033,434.971996 L1137.24625,430.015815 C1117.55982,427.282389 1080.50646,422.589531 1054.9146,419.636346 C1029.31788,416.683161 996.156186,412.146166 981.312518,409.689616 C966.614423,407.203055 954.027148,405.224261 953.435148,405.341401 C952.988722,405.429014 964.382293,409.179912 978.832912,413.558622 Z" id="Path" fill="url(#linearGradient-7)"></path>
            </g>
            <g id="ANIMEJIKAN">
                <use fill="black" fill-opacity="1" filter="url(#filter-10)" xlink:href="#path-9"></use>
                <use fill="url(#linearGradient-8)" xlink:href="#path-9"></use>
            </g>
        </g>
    </g>
</svg>