<?xml version="1.0" encoding="UTF-8"?>
<svg width="1920px" height="1080px" viewBox="0 0 1920 1080" version="1.1" xmlns="http://www.w3.org/2000/svg" xmlns:xlink="http://www.w3.org/1999/xlink">
    <title>anime-jikan-logo-dark</title>
    <defs>
        <path d="M155.07856,29.5686801 C118.417642,40.9598709 76.773719,63.0986018 49.5859523,85.7810215 C40.7131147,93.304253 41.2201566,95.1264858 50.17692,88.0303983 C66.065162,75.5700898 96.5709028,56.9653352 116.976723,47.1615178 C128.06283,41.8628822 132.789641,41.0760894 123.981387,45.9238715 C113.205875,52.0487536 86.1171454,69.9780896 75.3351242,78.322537 C63.4120845,87.6321343 39.1821319,111.060309 36.57848,115.865097 C35.7199263,117.513585 35.7177875,118.25375 36.3736174,117.828469 C37.1437352,117.232238 41.7926187,113.798316 46.6980687,110.165962 C57.6507312,101.935637 87.3041953,82.7593384 89.5825127,82.3089041 C90.4366493,82.1402824 86.4672623,86.7708591 80.8151752,92.6218474 C50.3596503,123.493601 26.5032488,155.575053 8.81680983,189.690679 C3.83812359,198.958354 -0.0555023456,206.975805 0,207.260413 C0.0566996745,207.545486 3.22140165,205.588169 7.01387029,203.063501 C10.6358836,200.424245 16.1088671,197.419331 19.0146983,196.400613 C25.2255311,194.137262 25.4240237,194.393921 38.962065,217.305518 C44.0882328,226.054284 49.4711065,234.604152 51.0026938,236.371886 C53.3568002,239.308326 53.4149205,238.853234 51.1603162,231.16371 L48.6225495,222.790848 L58.8359212,234.083381 C64.4819638,240.214785 76.311081,253.702195 85.1328192,263.938746 C93.9540924,274.175297 101.330261,282.331093 101.559023,281.989658 C101.787785,281.648688 99.3564946,276.065072 95.9883045,269.483234 C92.6484771,263.043933 90.0749083,257.488732 90.303205,257.147762 C90.5319666,256.806326 92.6335982,258.4618 94.9030814,260.971097 C97.1725646,263.480859 99.2737312,265.135868 99.5024929,264.794898 C99.7312546,264.453928 97.8369963,260.095382 95.23274,255.137343 C82.2426108,229.750454 76.0176896,207.167717 76.6425995,187.815344 C77.1317403,176.033249 82.0287279,165.59873 99.0942556,139.593251 C116.0733,113.900794 132.515778,96.7456272 157.956214,77.9587426 C175.638748,64.8477031 185.128637,60.4565506 208.140574,54.8706059 C235.111203,48.353981 268.756372,46.433929 295.926005,49.9358579 C314.731423,52.2816566 373.147483,66.4668445 385.882348,71.7877456 C409.390864,81.4867566 436.996632,101.468899 457.766053,123.542045 C466.194898,132.525578 466.362284,132.6397 464.272742,127.284795 C462.324548,121.901476 454.693579,113.204414 443.423347,103.304175 C438.739777,99.0532298 438.513341,98.6544999 442.008001,100.625791 C444.282133,101.655222 456.639448,109.565538 469.565878,118.102829 L493,133.436694 L485.207224,122.405478 C481.041158,116.277801 473.750542,107.068818 469.184608,101.907689 C456.049876,87.0512743 456.135894,86.7382527 470.421409,96.9296206 C495.189975,114.514726 489.601122,107.92823 451.758269,75.0316181 C440.317396,65.0172565 430.296519,56.2009477 429.502363,55.1747772 C427.459316,53.0642105 453.554885,63.878361 475.298868,74.3706395 L492.460643,82.6610534 L481.441026,75.5221117 C461.413686,62.4725587 417.977796,44.7332715 376.80302,32.4635242 C324.964323,17.1256063 272.89919,11.1509 226.668409,15.2639663 C210.384949,16.7090361 171.400612,24.5660641 155.07856,29.5686801 Z" id="path-1"></path>
        <filter x="-1.4%" y="-3.9%" width="121.9%" height="107.9%" filterUnits="objectBoundingBox" id="filter-2">
            <feMorphology radius="3.5" operator="dilate" in="SourceAlpha" result="shadowSpreadOuter1"></feMorphology>
            <feOffset dx="0" dy="0" in="shadowSpreadOuter1" result="shadowOffsetOuter1"></feOffset>
            <feColorMatrix values="0 0 0 0 1   0 0 0 0 1   0 0 0 0 1  0 0 0 1 0" type="matrix" in="shadowOffsetOuter1"></feColorMatrix>
        </filter>
        <path d="M242.264429,81.6144886 C223.286451,88.1772956 210.48192,96.0342166 198.005734,108.559824 C190.583086,115.944379 178.585931,130.150751 178.810564,131.289739 C178.894743,131.716452 182.48096,131.895336 186.837812,131.477474 C197.886208,130.476376 207.044062,133.399545 211.012574,139.271506 C214.782497,144.886787 215.805669,155.335197 213.64166,165.378322 C212.517567,170.18583 212.59756,172.09346 213.93559,172.124672 C222.929271,172.713033 224.834696,173.371736 225.879262,176.419751 C227.545636,181.119649 222.161892,192.094928 216.057741,196.408642 C209.068547,201.488668 207.758887,201.599539 204.839127,197.295142 C203.421103,195.356766 202.202134,193.674605 202.003545,193.418391 C201.804957,193.161711 199.837211,194.438123 197.640647,196.055998 C193.445642,199.547963 181.709396,202.31228 175.904755,201.388977 C170.242429,200.437259 160.268828,194.125541 156.297991,188.993806 L152.609922,184.545464 L150.424519,192.22583 C144.383154,214.129804 144.481286,239.405556 151.010053,265.776971 C168.851845,337.542999 218.58172,387.916083 275.108713,390.940807 C286.180363,391.562242 308.255296,387.197752 319.998054,382.213224 C349.326812,369.609821 377.436134,345.561568 396.620608,316.769162 C417.062652,286.101269 425.056415,258.337912 422.55662,226.880414 C420.628406,204.33311 408.443824,165.027542 396.182039,142.600426 C372.337948,98.9434109 339.695509,75.9600769 296.661364,73.0783674 C286.301283,72.316247 254.575048,77.2574518 242.264429,81.6144886 Z M263.148298,194.346351 C267.705599,193.445409 287.247717,208.515921 288.285771,213.783683 C288.790846,216.346755 282.960162,214.541145 276.767181,210.144045 C268.897129,204.747711 264.684916,204.397396 258.72308,208.682227 C251.477162,213.961169 251.46693,227.424054 258.955154,236.889999 C263.890563,243.162586 276.70207,252.611761 284.067048,255.445488 C289.328011,257.363833 289.612639,257.307466 297.138999,253.452609 C312.56285,245.37348 321.955568,235.972287 324.689297,225.816427 C326.732386,218.164477 325.124611,213.008984 319.386942,208.670115 C315.068691,205.529863 309.913765,206.401456 300.305251,211.703224 C296.285115,213.829335 292.580303,215.301402 292.040812,214.816458 C290.022838,213.588494 294.481077,207.677402 301.271218,202.340696 C309.887256,195.755995 318.147508,194.122746 324.2005,197.807571 C345.257378,210.80368 330.553003,245.810442 298.433776,258.521921 C290.881372,261.494004 288.859678,261.746025 284.792104,260.627069 C270.683959,256.611961 249.726143,238.862848 245.744609,227.668156 C243.344806,220.746184 243.713148,211.354307 246.921722,204.359197 C249.070848,199.496254 255.833084,194.017466 259.020264,194.42275 C260.243885,194.62446 262.008857,194.571354 263.148298,194.346351 Z M213.808158,226.29019 L218.792866,225.304931 L223.228316,247.0603 C226.763375,264.999944 228.427425,270.440067 232.842876,279.33023 C239.098642,291.554436 243.295973,297.085399 239.819514,288.453314 C234.618545,275.576927 231.833657,244.175796 235.572885,240.6256 C236.086331,240.228236 237.860604,246.977846 239.714406,255.634621 C242.267685,268.591134 243.707102,272.892269 247.561204,278.934729 C254.363437,289.424133 264.02218,296.389895 275.827723,299.232939 C284.362372,301.243521 287.180281,301.277993 299.143486,298.912904 C311.106225,296.547816 313.443243,295.64175 319.720403,290.702874 C323.54381,287.579857 328.282491,283.09285 330.140013,280.506485 C337.79985,269.820961 343.700762,247.205178 341.540474,236.242011 C340.839136,232.682498 341.153994,232.028454 342.459468,233.397569 C347.284654,238.360668 348.716629,265.147616 345.111344,281.39252 C342.832926,291.606145 344.345825,290.271503 350.304871,276.963278 C356.521106,263.456604 361.045386,244.367258 362.866167,225.07294 C363.65959,216.336506 364.563702,208.909559 364.934834,208.540145 C366.078461,206.834691 376.898039,215.937744 382.116216,222.894189 C390.283918,233.556887 394.772852,246.574425 395.500699,260.779399 C395.852764,267.07062 395.8616,273.873336 395.77091,275.666369 C395.64999,278.057079 396.131345,278.997152 397.413101,278.743733 C400.688646,278.09621 407.02208,283.204653 407.807597,287.191344 C408.789842,292.174474 403.762347,298.197834 397.638199,299.409028 C393.792933,300.169285 392.793945,301.106097 391.956804,305.117943 C390.569941,312.344578 376.96315,331.89837 366.314721,342.43529 C361.090498,347.46221 351.961014,354.444743 345.858724,358.017764 C335.365631,364.086777 333.969467,364.510695 307.194918,369.804077 C274.724093,376.224336 269.087811,376.155391 251.515764,368.83093 C214.467174,353.523769 195.468732,337.45775 186.568997,314.070063 C181.935424,301.821167 177.912498,275.398043 179.053334,264.670127 C180.222541,254.084293 185.237013,242.737736 192.491302,234.498823 C197.575071,228.760094 199.286094,227.682597 203.67085,227.407284 C206.460854,227.299208 211.102334,226.825445 213.808158,226.29019 Z" id="path-3"></path>
        <filter x="-3.8%" y="-3.3%" width="107.6%" height="106.6%" filterUnits="objectBoundingBox" id="filter-4">
            <feMorphology radius="3.5" operator="dilate" in="SourceAlpha" result="shadowSpreadOuter1"></feMorphology>
            <feOffset dx="0" dy="0" in="shadowSpreadOuter1" result="shadowOffsetOuter1"></feOffset>
            <feColorMatrix values="0 0 0 0 1   0 0 0 0 1   0 0 0 0 1  0 0 0 1 0" type="matrix" in="shadowOffsetOuter1"></feColorMatrix>
        </filter>
        <path d="M943.072635,14.8882214 C896.878987,27.7166371 859.855179,41.9884726 823.27357,60.7602941 C805.269033,70.0896527 787.604292,80.3878777 788.484038,81.1018284 C788.823834,81.3301807 791.67719,80.0267082 794.591058,78.267463 C810.08669,68.9893672 847.203593,51.4435182 845.490648,54.0024626 C844.918115,54.8552887 832.038447,65.3916526 816.929159,77.4043844 C791.086038,98.049767 789.829258,99.1859365 796.788095,96.9229181 C806.400135,93.8396953 806.618908,95.719641 798.40329,110.366347 C792.701233,120.519638 792.328854,121.629244 795.354435,120.439948 C798.519659,119.222224 798.687229,119.3364 797.826102,122.467158 C797.137201,124.231063 793.380825,132.224327 789.312581,140.131377 C785.100041,148.066854 781.860341,154.922085 782,155.634172 C782.116352,156.20412 785.230374,153.221093 788.805215,148.815291 C795.377709,140.856046 816.063377,121.822645 822.254182,117.935063 C824.223138,116.657687 820.704154,122.829259 813.577745,133.26403 C802.848568,148.702979 793.999905,163.91777 798.859455,158.517936 C799.832296,157.438155 806.237219,150.105249 812.842296,142.289074 C837.167972,113.951945 851.053064,100.997376 872.744156,87.0911843 C901.687334,68.6449746 947.811161,50.2066873 982.707753,43.1629959 C1039.71902,31.8953919 1108.41368,41.553205 1165.77405,68.8407052 C1183.44345,77.3358787 1214.83968,97.6200918 1230.24687,110.409688 C1266.76797,140.927348 1285.2147,166.878894 1290.97262,196.077237 C1293.13242,207.044674 1293.23482,210.575747 1291.21001,221.334871 C1288.77558,235.282074 1282.28687,254.175202 1273.22409,274.315879 C1269.6958,281.968013 1268.08991,286.577468 1269.6027,284.502258 C1271.14808,282.569185 1276.09607,276.116134 1280.55531,270.20274 C1292.02924,254.765655 1294.02147,255.111912 1287.59328,271.328657 C1285.4102,276.790939 1283.71588,281.713563 1283.82759,282.283046 C1283.91138,282.710391 1288.71507,276.285301 1294.46833,267.89778 C1300.3333,259.339693 1304.85306,253.71104 1304.53188,255.105854 C1304.38758,256.614844 1303.98262,259.062408 1303.80574,260.428794 C1303.51715,261.966211 1306.6591,258.384807 1310.66683,252.414092 C1318.76142,240.899075 1322.0756,238.172362 1317.9515,246.535184 C1312.58924,257.657342 1314.21839,256.151614 1326.43243,238.495317 C1339.59604,219.61617 1349.88767,207.223628 1359.02493,199.497862 L1364.48029,194.868368 L1375,203.148238 L1371.45309,197.930153 C1359.8814,180.535763 1339.12126,156.373288 1315.28433,132.374854 C1308.29756,125.469292 1301.96246,118.877832 1301.02686,117.87914 C1298.18281,114.740926 1313.31537,123.885272 1329.26717,134.93939 L1344.53938,145.535871 L1333.1725,135.204093 C1308.98647,113.198382 1287.1278,95.4684534 1267.39636,81.7584579 L1246.66414,67.5050769 L1260.78662,71.5217482 C1277.75315,76.4560231 1298.49468,86.2672517 1319.28275,99.324812 C1336.4634,109.840205 1335.21128,108.755298 1311.27194,90.9927473 C1283.35281,70.3175391 1249.64317,52.5624447 1196.36967,30.2380664 C1175.5397,21.4801945 1146.04726,13.1023662 1120.30655,8.71907292 C1100.22599,5.28754291 1102.16702,4.60831117 1125.43607,6.96462782 C1167.70577,11.0416959 1237.8341,27.9635372 1272.03713,42.2171978 C1284.1348,47.2259901 1284.93077,47.5125956 1284.59562,45.8036811 C1284.17204,43.6669556 1254.8239,33.780324 1222.51535,24.6276822 C1150.88819,4.59885086 1086.71794,-3.1414317 1026.84401,1.14376794 C1009.91937,2.41730765 956.557419,11.1870026 943.072635,14.8882214 Z" id="path-5"></path>
        <filter x="-1.7%" y="-3.7%" width="111.2%" height="108.5%" filterUnits="objectBoundingBox" id="filter-6">
            <feMorphology radius="3.5" operator="dilate" in="SourceAlpha" result="shadowSpreadOuter1"></feMorphology>
            <feOffset dx="0" dy="0" in="shadowSpreadOuter1" result="shadowOffsetOuter1"></feOffset>
            <feColorMatrix values="0 0 0 0 1   0 0 0 0 1   0 0 0 0 1  0 0 0 1 0" type="matrix" in="shadowOffsetOuter1"></feColorMatrix>
        </filter>
        <path d="M989.56116,72.6717775 C977.985976,77.7650146 972.568102,81.7912081 961.17894,93.0544983 C949.045692,105.055831 932.066586,128.505197 937.200777,126.014188 C939.079594,125.051382 944.353301,123.271425 948.966633,121.916796 C956.802786,119.63054 957.997973,119.689639 962.82988,122.42961 C974.11208,128.623861 980.10662,141.772742 976.744283,153.224499 L975.218907,158.992956 L978.637051,159.057174 C980.599577,159.260531 983.045759,160.402961 984.18049,161.65661 C988.491536,167.010907 972.544849,188.187978 965.206304,186.978072 C963.811143,186.662566 962.081144,184.640162 961.034773,182.334827 C959.648914,179.062032 958.797866,178.491515 957.114372,179.710262 C955.802921,180.560454 952.180153,182.457679 949.073595,183.957962 C937.414702,189.363913 923.881643,184.501488 918.194038,172.916642 L915.445571,167.252888 L911.70654,180.551612 C907.107161,196.97608 904.32149,215.849676 904.014554,232.311838 C903.530899,251.616812 915.208394,309.304644 923.100353,327.547228 C939.530696,365.085945 963.062407,386.887513 996.602071,395.631407 C1019.38505,401.622766 1037.91278,402.544156 1062.00721,398.671993 C1091.13816,394.099481 1116.33476,383.064676 1143.03349,363.16173 C1213.07056,310.909631 1232.73302,233.585031 1195.46828,156.422372 C1181.93987,128.358612 1162.44948,105.314099 1136.82502,87.1757533 C1112.36786,69.6935484 1086.2365,60.2265026 1061.92815,60.0036008 C1047.2371,59.8016396 999.764435,68.1444039 989.56116,72.6717775 Z M1027.78856,191.462634 C1037.54539,193.673038 1048.75783,204.018196 1050.38552,212.267425 C1051.11565,215.965083 1047.26966,216.724531 1045.37689,213.109706 C1042.8563,208.583263 1033.82031,202.536062 1029.35114,202.384358 C1019.4176,202.277793 1014.55314,210.626607 1017.10628,223.569339 C1019.09671,233.667397 1026.13297,243.065106 1037.21055,250.481827 L1046.07447,256.414553 L1056.01732,253.564295 C1069.92242,249.78427 1080.15825,243.180978 1085.05061,234.974561 C1088.51061,229.266599 1088.8594,227.277235 1087.73397,221.587886 C1085.91096,212.343277 1081.28368,209.120275 1072.30814,210.892786 C1068.60632,211.623849 1063.76046,213.319578 1061.37008,214.679325 C1053.01307,219.580374 1053.37116,213.15531 1061.87699,206.008025 C1071.00599,198.293947 1081.39994,196.979803 1089.41281,202.342477 C1095.20738,206.22162 1095.43526,206.620424 1096.57929,215.408526 C1098.05816,225.903526 1095.82125,231.812984 1086.93873,241.546209 C1079.00026,250.059291 1068.73653,255.780749 1055.71968,258.795275 L1044.98159,261.359809 L1034.29931,253.716929 C1020.66394,243.849684 1013.82766,235.447355 1010.58158,225.005404 C1005.67527,209.129116 1010.16303,192.874966 1020.16168,190.309035 C1021.01738,190.140114 1024.37507,190.658977 1027.78856,191.462634 Z M971.540333,230.352256 C973.461005,255.093429 983.827049,293.386941 990.556374,300.481175 C991.291159,301.22201 990.058767,294.224567 988.063687,284.865948 C983.766592,266.062154 982.952748,252.185002 985.31522,240.930554 C986.817343,234.280726 991.937583,225.733209 993.667583,227.016174 C994.151238,227.216274 993.681534,232.333244 992.756078,238.131484 C988.458983,266.612661 997.708898,286.507231 1022.03585,301.060069 C1027.37932,304.142536 1037.2431,308.400007 1044.09799,310.149252 C1054.28267,313.014401 1058.17981,313.278719 1067.40648,312.047407 C1081.39064,310.172519 1087.63631,305.835473 1096.01657,292.06349 C1103.19235,280.449327 1111.26103,256.099512 1112.87012,241.005009 C1114.65127,226.024517 1117.23232,230.095849 1117.54855,248.208601 C1117.78573,265.15519 1115.65579,282.125512 1111.92606,292.466947 L1109.05668,300.422076 L1113.97694,292.35759 C1119.00882,284.122787 1125.90092,263.552065 1128.56102,248.545048 C1129.43067,243.940426 1130.71422,232.456561 1131.54202,223.131912 L1133.0953,206.27467 L1141.10817,211.636878 C1145.56803,214.74587 1151.95787,220.872646 1155.52948,225.486574 C1161.51472,233.318386 1162.07743,234.684649 1164.57477,248.082026 C1166.5373,258.777126 1166.88144,266.540067 1166.22106,278.935549 L1165.23515,295.680642 L1168.11848,292.303144 C1174.60133,284.66864 1186.68807,288.191792 1188.68315,298.28985 C1189.71557,304.291447 1188.59944,307.61543 1184.14888,311.302385 C1178.15434,316.180166 1166.23966,312.031585 1164.75149,304.493874 C1164.44456,302.929373 1162.46808,307.900689 1160.42184,315.544965 C1158.38026,323.189242 1155.283,331.485006 1153.39488,333.926223 C1149.30706,339.462006 1138.71779,349.533074 1129.6446,356.792508 C1106.05243,375.195171 1056.21729,392.574534 1031.65316,391.071925 C1001.08984,389.130026 972.358828,371.752525 950.640826,341.907877 C942.702361,330.915885 940.195723,321.214769 939.660911,299.74639 C939.093546,269.12275 954.565878,223.804806 966.527056,221.442232 L970.800898,220.59809 L971.540333,230.352256 Z" id="path-7"></path>
        <filter x="-3.4%" y="-3.1%" width="106.8%" height="106.2%" filterUnits="objectBoundingBox" id="filter-8">
            <feMorphology radius="3.5" operator="dilate" in="SourceAlpha" result="shadowSpreadOuter1"></feMorphology>
            <feOffset dx="0" dy="0" in="shadowSpreadOuter1" result="shadowOffsetOuter1"></feOffset>
            <feColorMatrix values="0 0 0 0 1   0 0 0 0 1   0 0 0 0 1  0 0 0 1 0" type="matrix" in="shadowOffsetOuter1"></feColorMatrix>
        </filter>
        <path d="M186.703347,396.033282 C195.838354,401.818257 198.333265,403.951034 195.633579,403.749025 C193.531037,403.576791 190.80349,403.23507 189.61013,403.176437 C188.416306,403.118262 190.829493,404.102656 194.918491,405.343111 C206.73136,409.006303 236.025322,412.175236 255.637283,411.992466 C279.797013,411.651662 314.349652,404.923519 337.796152,395.848679 C346.872651,392.481401 359.361602,388.449462 365.61815,387.230994 C391.412829,381.771707 383.398281,381.587105 351.777963,386.7262 C296.868094,395.818446 245.808086,400.524665 220.233041,398.958979 C207.360079,398.120252 190.061935,394.361323 178.848069,389.999116 C176.264933,388.902494 179.780932,391.708636 186.703347,396.033282 Z" id="path-9"></path>
        <filter x="-6.5%" y="-36.2%" width="113.4%" height="172.4%" filterUnits="objectBoundingBox" id="filter-10">
            <feMorphology radius="3.5" operator="dilate" in="SourceAlpha" result="shadowSpreadOuter1"></feMorphology>
            <feOffset dx="0" dy="0" in="shadowSpreadOuter1" result="shadowOffsetOuter1"></feOffset>
            <feColorMatrix values="0 0 0 0 1   0 0 0 0 1   0 0 0 0 1  0 0 0 1 0" type="matrix" in="shadowOffsetOuter1"></feColorMatrix>
        </filter>
        <path d="M938.392295,397.825882 C1005.10923,418.010464 1037.51048,424.412623 1079.61439,425.993812 C1090.79366,426.299269 1158.08354,415.20975 1165.24758,411.762186 C1168.21941,410.30447 1162.42948,410.99601 1147.13717,413.834963 L1124.74137,418.207192 L1090.45828,413.489884 C1071.56066,410.888201 1035.99196,406.421526 1011.42552,403.610676 C986.854421,400.799826 955.021456,396.481502 940.772548,394.14335 C926.66338,391.776634 914.580455,389.893213 914.012176,390.004707 C913.583637,390.088097 924.520687,393.658213 938.392295,397.825882 Z" id="path-11"></path>
        <filter x="-4.2%" y="-28.8%" width="108.3%" height="157.9%" filterUnits="objectBoundingBox" id="filter-12">
            <feMorphology radius="3.5" operator="dilate" in="SourceAlpha" result="shadowSpreadOuter1"></feMorphology>
            <feOffset dx="0" dy="0" in="shadowSpreadOuter1" result="shadowOffsetOuter1"></feOffset>
            <feColorMatrix values="0 0 0 0 1   0 0 0 0 1   0 0 0 0 1  0 0 0 1 0" type="matrix" in="shadowOffsetOuter1"></feColorMatrix>
        </filter>
        <linearGradient x1="101.570791%" y1="50%" x2="0%" y2="50%" id="linearGradient-13">
            <stop stop-color="#F58B3A" offset="0%"></stop>
            <stop stop-color="#FFFFFF" offset="100%"></stop>
        </linearGradient>
        <path d="M248.130475,200.567376 L248.130475,26.3602837 L384.71726,200.567376 L396.743769,200.567376 L396.743769,-2.13162821e-13 L382.14015,-2.13162821e-13 L382.14015,174.207092 L245.839711,-2.13162821e-13 L233.526856,-2.13162821e-13 L233.526856,200.567376 L248.130475,200.567376 Z M481.21568,200.567376 L481.21568,-2.13162821e-13 L466.612061,-2.13162821e-13 L466.612061,200.567376 L481.21568,200.567376 Z M565.401245,200.567376 L565.401245,29.5120567 L649.300465,173.920567 L656.459102,173.920567 L740.358322,28.9390071 L740.644667,200.567376 L754.96194,200.567376 L754.675595,-2.13162821e-13 L742.649085,-2.13162821e-13 L653.022956,155.009929 L563.396827,-2.13162821e-13 L551.083972,-2.13162821e-13 L551.083972,200.567376 L565.401245,200.567376 Z M963.13509,200.567376 L963.13509,187.387234 L824.830232,187.387234 L824.830232,105.15461 L946.240708,105.15461 L946.240708,92.2609929 L824.830232,92.2609929 L824.830232,13.7294758 L958.839908,13.1801418 L958.839908,-2.13162821e-13 L824.830232,-2.13162821e-13 L824.830232,200.567376 L963.13509,200.567376 Z M1108.02589,202 C1125.97021,202 1139.52389,196.938061 1148.68695,186.814184 C1157.85,176.690307 1162.43153,161.6 1162.43153,141.543262 L1162.43153,141.543262 L1162.43153,-2.13162821e-13 L1073.95078,-2.13162821e-13 L1073.95078,13.1801418 L1147.82791,13.1801418 L1147.82791,141.543262 C1147.82791,157.588652 1144.53494,169.479433 1137.94899,177.215603 C1131.36305,184.951773 1121.38868,188.819858 1108.02589,188.819858 C1099.05374,188.819858 1090.79744,186.670922 1083.25701,182.37305 C1075.71658,178.075177 1069.17836,171.819385 1063.64235,163.605674 L1063.64235,163.605674 L1054.76564,173.347518 C1060.49255,182.325296 1068.0807,189.345154 1077.5301,194.407092 C1086.9795,199.469031 1097.14477,202 1108.02589,202 Z M1245.18537,200.567376 L1245.18537,-2.13162821e-13 L1230.58175,-2.13162821e-13 L1230.58175,200.567376 L1245.18537,200.567376 Z M1329.65728,200.567376 L1329.65728,147.846809 L1374.61352,101.716312 L1460.8035,200.567376 L1478.55692,200.567376 L1384.34926,91.1148936 L1472.54366,-2.13162821e-13 L1454.79025,-2.13162821e-13 L1329.65728,128.93617 L1329.65728,-2.13162821e-13 L1315.05366,-2.13162821e-13 L1315.05366,200.567376 L1329.65728,200.567376 Z M1491.15612,200.567376 L1574.91217,11.2826968 L1658.66821,200.567376 L1674.41721,200.567376 L1582.21398,-2.13162821e-13 L1567.61036,-2.13162821e-13 L1475.40712,200.567376 L1491.15612,200.567376 Z M15.7490003,200.567376 L99.5050475,11.2826968 L183.261095,200.567376 L199.010095,200.567376 L106.806857,-3.12638804e-13 L92.2032383,-3.12638804e-13 L0,200.567376 L15.7490003,200.567376 Z M1725.38671,200.567376 L1725.38671,26.3602837 L1861.97349,200.567376 L1874,200.567376 L1874,-2.13162821e-13 L1859.39638,-2.13162821e-13 L1859.39638,174.207092 L1723.09594,-2.13162821e-13 L1710.78309,-2.13162821e-13 L1710.78309,200.567376 L1725.38671,200.567376 Z" id="path-14"></path>
        <filter x="-0.4%" y="-2.5%" width="100.7%" height="106.9%" filterUnits="objectBoundingBox" id="filter-15">
            <feOffset dx="0" dy="2" in="SourceAlpha" result="shadowOffsetOuter1"></feOffset>
            <feGaussianBlur stdDeviation="2" in="shadowOffsetOuter1" result="shadowBlurOuter1"></feGaussianBlur>
            <feColorMatrix values="0 0 0 0 0   0 0 0 0 0   0 0 0 0 0  0 0 0 0.5 0" type="matrix" in="shadowBlurOuter1"></feColorMatrix>
        </filter>
    </defs>
    <g id="anime-jikan-logo-dark" stroke="none" stroke-width="1" fill="none" fill-rule="evenodd">
        <g id="Group-2" transform="translate(23.000000, 177.000000)" fill-rule="nonzero">
            <g id="Group" transform="translate(249.000000, 293.000000)">
                <g id="Path">
                    <use fill="black" fill-opacity="1" filter="url(#filter-2)" xlink:href="#path-1"></use>
                    <use fill="#000000" xlink:href="#path-1"></use>
                </g>
                <g id="Shape">
                    <use fill="black" fill-opacity="1" filter="url(#filter-4)" xlink:href="#path-3"></use>
                    <use fill="#000000" xlink:href="#path-3"></use>
                </g>
                <g id="Path">
                    <use fill="black" fill-opacity="1" filter="url(#filter-6)" xlink:href="#path-5"></use>
                    <use fill="#000000" xlink:href="#path-5"></use>
                </g>
                <g id="Shape">
                    <use fill="black" fill-opacity="1" filter="url(#filter-8)" xlink:href="#path-7"></use>
                    <use fill="#000000" xlink:href="#path-7"></use>
                </g>
                <g id="Path">
                    <use fill="black" fill-opacity="1" filter="url(#filter-10)" xlink:href="#path-9"></use>
                    <use fill="#000000" xlink:href="#path-9"></use>
                </g>
                <g id="Path">
                    <use fill="black" fill-opacity="1" filter="url(#filter-12)" xlink:href="#path-11"></use>
                    <use fill="#000000" xlink:href="#path-11"></use>
                </g>
            </g>
            <g id="ANIMEJIKAN">
                <use fill="black" fill-opacity="1" filter="url(#filter-15)" xlink:href="#path-14"></use>
                <use fill="url(#linearGradient-13)" xlink:href="#path-14"></use>
            </g>
        </g>
    </g>
</svg>