<?xml version="1.0" encoding="UTF-8"?>
<svg width="1920px" height="250px" viewBox="0 0 1920 250" version="1.1" xmlns="http://www.w3.org/2000/svg" xmlns:xlink="http://www.w3.org/1999/xlink">
    <title>anime-jikan-logo-light-sidebar</title>
    <defs>
        <filter x="-3.1%" y="-9.9%" width="106.2%" height="119.8%" filterUnits="objectBoundingBox" id="filter-1">
            <feOffset dx="0" dy="2" in="SourceAlpha" result="shadowOffsetOuter1"></feOffset>
            <feGaussianBlur stdDeviation="2" in="shadowOffsetOuter1" result="shadowBlurOuter1"></feGaussianBlur>
            <feColorMatrix values="0 0 0 0 0   0 0 0 0 0   0 0 0 0 0  0 0 0 0.5 0" type="matrix" in="shadowBlurOuter1" result="shadowMatrixOuter1"></feColorMatrix>
            <feMerge>
                <feMergeNode in="shadowMatrixOuter1"></feMergeNode>
                <feMergeNode in="SourceGraphic"></feMergeNode>
            </feMerge>
        </filter>
        <linearGradient x1="101.570791%" y1="50%" x2="0%" y2="50%" id="linearGradient-2">
            <stop stop-color="#F58B3A" offset="0%"></stop>
            <stop stop-color="#000000" offset="100%"></stop>
        </linearGradient>
        <path d="M186.958501,150.921986 L186.958501,19.835461 L289.872343,150.921986 L298.933939,150.921986 L298.933939,-2.27373675e-13 L287.930572,-2.27373675e-13 L287.930572,131.086525 L185.232482,-2.27373675e-13 L175.955134,-2.27373675e-13 L175.955134,150.921986 L186.958501,150.921986 Z M362.580864,150.921986 L362.580864,-2.27373675e-13 L351.577498,-2.27373675e-13 L351.577498,150.921986 L362.580864,150.921986 Z M426.012037,150.921986 L426.012037,22.2070922 L489.227458,130.870922 L494.621265,130.870922 L557.836686,21.7758865 L558.052439,150.921986 L568.840053,150.921986 L568.624301,-2.27373675e-13 L559.562705,-2.27373675e-13 L492.032238,116.641135 L424.501771,-2.27373675e-13 L415.224423,-2.27373675e-13 L415.224423,150.921986 L426.012037,150.921986 Z M725.691967,150.921986 L725.691967,141.004255 L621.483612,141.004255 L621.483612,79.1262411 L712.962582,79.1262411 L712.962582,69.4241135 L621.483612,69.4241135 L621.483612,10.3310907 L722.455683,9.9177305 L722.455683,-2.27373675e-13 L621.483612,-2.27373675e-13 L621.483612,150.921986 L725.691967,150.921986 Z M834.862626,152 C848.383103,152 858.595378,148.191017 865.499451,140.57305 C872.403524,132.955083 875.855561,121.6 875.855561,106.507801 L875.855561,106.507801 L875.855561,-2.27373675e-13 L809.188103,-2.27373675e-13 L809.188103,9.9177305 L864.852194,9.9177305 L864.852194,106.507801 C864.852194,118.58156 862.371043,127.529078 857.40874,133.350355 C852.446437,139.171631 844.931066,142.08227 834.862626,142.08227 C828.102387,142.08227 821.88153,140.465248 816.200053,137.231206 C810.518576,133.997163 805.592232,129.289835 801.421021,123.10922 L801.421021,123.10922 L794.7327,130.439716 C799.047746,137.195272 804.765181,142.477541 811.885007,146.286525 C819.004833,150.095508 826.664039,152 834.862626,152 Z M938.207972,150.921986 L938.207972,-2.27373675e-13 L927.204606,-2.27373675e-13 L927.204606,150.921986 L938.207972,150.921986 Z M1001.8549,150.921986 L1001.8549,111.251064 L1035.72801,76.5390071 L1100.66945,150.921986 L1114.04609,150.921986 L1043.06359,68.5617021 L1109.51529,-2.27373675e-13 L1096.13865,-2.27373675e-13 L1001.8549,97.0212766 L1001.8549,-2.27373675e-13 L990.851531,-2.27373675e-13 L990.851531,150.921986 L1001.8549,150.921986 Z M1123.53919,150.921986 L1186.64673,8.48995004 L1249.75428,150.921986 L1261.62065,150.921986 L1192.14842,-2.27373675e-13 L1181.14505,-2.27373675e-13 L1111.67281,150.921986 L1123.53919,150.921986 Z M11.8663759,150.921986 L74.9739206,8.48995004 L138.081465,150.921986 L149.947841,150.921986 L80.4756039,-2.98427949e-13 L69.4722372,-2.98427949e-13 L0,150.921986 L11.8663759,150.921986 Z M1300.02456,150.921986 L1300.02456,19.835461 L1402.9384,150.921986 L1412,150.921986 L1412,-2.27373675e-13 L1400.99663,-2.27373675e-13 L1400.99663,131.086525 L1298.29854,-2.27373675e-13 L1289.0212,-2.27373675e-13 L1289.0212,150.921986 L1300.02456,150.921986 Z" id="path-3"></path>
        <filter x="-0.5%" y="-3.3%" width="101.0%" height="109.2%" filterUnits="objectBoundingBox" id="filter-4">
            <feOffset dx="0" dy="2" in="SourceAlpha" result="shadowOffsetOuter1"></feOffset>
            <feGaussianBlur stdDeviation="2" in="shadowOffsetOuter1" result="shadowBlurOuter1"></feGaussianBlur>
            <feColorMatrix values="0 0 0 0 0   0 0 0 0 0   0 0 0 0 0  0 0 0 0.5 0" type="matrix" in="shadowBlurOuter1"></feColorMatrix>
        </filter>
    </defs>
    <g id="anime-jikan-logo-light-sidebar" stroke="none" stroke-width="1" fill="none" fill-rule="evenodd">
        <g id="Group-2" transform="translate(37.000000, 49.000000)" fill-rule="nonzero">
            <g id="Group" filter="url(#filter-1)" transform="translate(1456.000000, 15.000000)" fill="#000000">
                <path d="M44.0565657,8.454958 C33.6583305,11.6808968 21.8467519,17.9504953 14.1354121,24.3740641 C11.6187852,26.5046126 11.7625989,27.0206615 14.3030299,25.0110785 C18.8094549,21.4823698 27.4618807,16.2135791 33.2496386,13.437178 C36.394021,11.936626 37.7346993,11.7138095 35.2363903,13.0866816 C32.1801028,14.8212233 24.4968532,19.8987382 21.4387194,22.2618517 C18.0569554,24.8982917 11.1845484,31.5330554 10.4460676,32.8937518 C10.2025537,33.3605967 10.201947,33.5702086 10.3879619,33.4497708 C10.6063924,33.2809204 11.9249678,32.3084479 13.3163139,31.2797799 C16.4228472,28.9489854 24.8335394,23.5183358 25.4797447,23.3907746 C25.7220058,23.3430216 24.5961578,24.6543821 22.993041,26.3113581 C14.3548582,35.054113 7.5884025,44.1394494 2.57195001,53.8008558 C1.15983176,56.4254235 0.0554721127,58.6959332 0.0712143931,58.7765328 C0.0872962751,58.8572644 0.984909254,58.3029604 2.06057739,57.5879846 C3.08789881,56.840558 4.64021592,55.9895786 5.46440467,55.7010819 C7.22599999,55.0601101 7.28229899,55.1327949 11.1221302,61.6212656 C12.5760791,64.0988808 14.1028381,66.5201685 14.5372463,67.0207834 C15.2049479,67.8523714 15.2214327,67.7234911 14.5819532,65.5458492 L13.8621596,63.1746889 L16.7590058,66.3726883 C18.3604081,68.1090768 21.7155326,71.9286565 24.2176661,74.8276061 C26.7196677,77.7265556 28.8117904,80.0362438 28.8766747,79.9395506 C28.941559,79.8429893 28.2519656,78.2617321 27.2966367,76.3977825 C26.3493525,74.5741986 25.6194042,73.0009882 25.6841566,72.9044269 C25.7490409,72.8077337 26.3451323,73.2765572 26.988832,73.9871798 C27.6325316,74.6979343 28.2284912,75.1666259 28.2933755,75.0700646 C28.3582598,74.9735033 27.8209862,73.7391808 27.0823339,72.3350846 C23.3979085,65.1456211 21.6323172,58.7502819 21.8095621,53.2697687 C21.9482984,49.9331273 23.3372443,46.9781142 28.1775861,39.6134684 C32.9933984,32.3374691 37.6570228,27.4791958 44.8727626,22.1588266 C49.8881073,18.4458336 52.5797504,17.2022771 59.1066881,15.6203603 C66.7564405,13.7748787 76.2993108,13.2311278 84.0055073,14.2228598 C89.339339,14.8871804 105.908044,18.9043679 109.520068,20.4112254 C116.187852,23.1579458 124.017751,28.8168072 129.908638,35.0678321 C132.299334,37.6119321 132.34681,37.6442511 131.754147,36.1277638 C131.201576,34.6032298 129.037184,32.1402571 125.840577,29.3365497 C124.512164,28.1326994 124.447939,28.0197808 125.439139,28.5780423 C126.084157,28.869573 129.589096,31.1097423 133.255454,33.5274683 L139.902137,37.8699565 L137.691851,34.7459611 C136.510219,33.010628 134.442362,30.4026814 133.147313,28.9410705 C129.421874,24.7337945 129.446271,24.6451481 133.498111,27.531302 C140.523286,32.5113322 138.938105,30.6460634 128.204634,21.3298769 C124.959628,18.4938504 122.11738,15.9971077 121.892131,15.7065004 C121.312656,15.1087965 128.714213,18.1713199 134.881518,21.1426904 L139.749158,23.4905019 L136.623634,21.4687827 C130.943226,17.7732024 118.623387,12.7495085 106.944874,9.27476605 C92.2417241,4.9311302 77.4743495,3.23911771 64.3617881,4.40392134 C59.7432663,4.8131592 48.6860335,7.03823754 44.0565657,8.454958 Z" id="Path"></path>
                <path d="M68.7876353,23.2175711 C63.4061955,25.0759803 59.7753128,27.3008476 56.2375364,30.8477604 C54.1327532,32.9388666 50.7308118,36.9617263 50.7945092,37.2842569 C50.8183792,37.4050904 51.8352954,37.4557455 53.0707345,37.3374184 C56.2036435,37.0539344 58.8004659,37.8816969 59.9257863,39.5444772 C60.9947946,41.1345727 61.2849276,44.0932794 60.6712963,46.9372207 C60.3525456,48.2985767 60.3752287,48.8387659 60.7546436,48.8476042 C63.3049127,49.014212 63.8452195,49.2007389 64.1414189,50.0638544 C64.6139401,51.3947382 63.087313,54.5026401 61.3564058,55.7241669 C59.3745336,57.1626928 59.0031633,57.1940884 58.1752292,55.9751999 C57.7731312,55.4263043 57.4274773,54.9499616 57.3711651,54.8774087 C57.314853,54.8047239 56.7568744,55.1661692 56.1340116,55.6243077 C54.9444663,56.6131377 51.6165088,57.3959174 49.9705315,57.1344631 C48.364909,56.8649621 45.5367716,55.0776547 44.4107917,53.6244863 L43.3649941,52.3648363 L42.7452964,54.539708 C41.0321928,60.7423204 41.0600192,67.8997287 42.9113316,75.3673996 C47.9705919,95.6895953 62.0721112,109.953889 78.1010368,110.810409 C81.2405398,110.986382 87.5001594,109.750477 90.8299633,108.338993 C99.1464941,104.770051 107.117239,97.9602369 112.557233,89.8070072 C118.353827,81.1226904 120.620557,73.2608594 119.911709,64.3529478 C119.36494,57.9681618 115.909852,46.8378892 112.432872,40.4871371 C105.671586,28.1246527 96.4154193,21.6163948 84.2125568,20.8003727 C81.2748282,20.5845608 72.278463,21.9837762 68.7876353,23.2175711 Z M74.7095138,55.1401821 C76.0017926,54.8850598 81.5432012,59.1526206 81.8375544,60.644308 C81.9807746,61.3701007 80.327412,60.8588007 78.5713161,59.6136613 C76.3396657,58.0855655 75.1452409,57.9863659 73.4546886,59.1997141 C71.4000193,60.6945674 71.397118,64.5068918 73.520496,67.1873913 C74.9199921,68.9636179 78.5528531,71.6393684 80.6412832,72.4418033 C82.1330944,72.9850266 82.2138041,72.9690649 84.3479962,71.8774737 C88.7216194,69.5896833 91.3850405,66.92752 92.1602231,64.0516554 C92.739566,61.8848305 92.2836615,60.4249345 90.6566747,59.1962843 C89.4321815,58.3070497 87.9704387,58.5538614 85.245826,60.0551786 C84.105867,60.6572356 83.0553217,61.0740849 82.9023425,60.9367621 C82.3301211,60.5890359 83.5943097,58.9151748 85.5197379,57.4039641 C87.9629216,55.5393549 90.3052181,55.0768632 92.0216187,56.1203057 C97.992556,59.800452 93.822949,69.713419 84.7151463,73.3129656 C82.5735691,74.1545791 82.0002926,74.2259448 80.846882,73.9090865 C76.8463434,72.7721168 70.9034962,67.7460485 69.7744832,64.576015 C69.0939894,62.6158998 69.1984373,59.9563747 70.108268,57.975549 C70.7176792,56.5984952 72.6351947,55.0470506 73.538959,55.1618161 C73.8859317,55.218935 74.3864112,55.2038967 74.7095138,55.1401821 Z M60.7185088,64.1858123 L62.1319841,63.9068135 L63.3897107,70.0673452 C64.3921202,75.1473664 64.863982,76.6878621 66.1160378,79.2053154 C67.8899374,82.6668796 69.0801422,84.2330986 68.0943493,81.7887259 C66.6195505,78.1424816 65.8298612,69.2505316 66.8901654,68.2452124 C67.0357595,68.1326894 67.5388765,70.0439963 68.0645447,72.4953605 C68.7885585,76.1642941 69.1967229,77.3822592 70.2896012,79.0933201 C72.2184582,82.0636354 74.9573138,84.0361505 78.3049212,84.8412237 C80.7250262,85.410566 81.5240788,85.4203277 84.9163931,84.7505986 C88.3085755,84.0808695 88.9712657,83.8242961 90.7512317,82.4257402 C91.835406,81.5413865 93.1791175,80.2707875 93.7058408,79.5383991 C95.877882,76.512548 97.5511582,70.1083705 96.9385819,67.0038984 C96.7397089,65.9959409 96.8289907,65.8107332 97.1991741,66.1984294 C98.567415,67.6038448 98.9734693,75.1891833 97.9511461,79.7893002 C97.3050726,82.6815221 97.7340739,82.3035875 99.4238349,78.5350586 C101.186525,74.7103342 102.46944,69.3047483 102.985745,63.8411202 C103.21073,61.3671986 103.467102,59.2640883 103.572341,59.1594802 C103.896631,58.6765418 106.964656,61.2542799 108.444334,63.2241568 C110.760387,66.2435441 112.033279,69.9297585 112.239669,73.9522225 C112.339501,75.7337257 112.342007,77.6600708 112.316291,78.1678091 C112.282002,78.8447935 112.418497,79.1109967 112.781954,79.0392352 C113.710776,78.8558743 115.506699,80.302447 115.729442,81.4313699 C116.00797,82.8424576 114.582362,84.5481101 112.845784,84.8910873 C111.755411,85.1063716 111.472136,85.3716513 111.234754,86.5076976 C110.841492,88.5540848 106.983119,94.0911893 103.963625,97.0749597 C102.482232,98.4984474 99.8934547,100.475711 98.1630751,101.487494 C95.1876292,103.206074 94.7917295,103.326117 87.1994761,104.825059 C77.9919732,106.643103 76.3937359,106.623579 71.4109653,104.54949 C60.9053808,100.214917 55.5181384,95.665455 52.9945087,89.0426955 C51.6806018,85.5741398 50.5398516,78.0918265 50.8633499,75.0539711 C51.1948928,72.0563496 52.6168083,68.843312 54.6738513,66.5102749 C56.1154167,64.8852222 56.6005983,64.5801043 57.8439501,64.5021429 C58.63509,64.4715388 59.9512389,64.3373819 60.7185088,64.1858123 Z" id="Shape"></path>
                <path d="M267.306136,4.37920059 C254.2185,8.01044624 243.728873,12.0502702 233.36453,17.3638722 C228.263464,20.0046654 223.25867,22.9197085 223.507921,23.1218013 C223.604192,23.1864393 224.412608,22.8174749 225.238168,22.3194982 C229.628408,19.6932156 240.144411,14.7266407 239.659098,15.4509823 C239.496887,15.6923856 235.847805,18.6748369 231.567024,22.0751929 C224.245122,27.9191301 223.88905,28.2407373 225.860636,27.6001612 C228.583929,26.727416 228.645912,27.2595584 226.318254,31.4054943 C224.702741,34.279512 224.597238,34.5936001 225.454449,34.2569547 C226.351224,33.9122625 226.3987,33.9445815 226.154725,34.830782 C225.959545,35.3300778 224.895284,37.5926726 223.742665,39.8308632 C222.549163,42.0771006 221.631288,44.0175606 221.670856,44.2191257 C221.703821,44.380457 222.586089,43.5360733 223.598917,42.2889551 C225.461043,40.03599 231.32173,34.6483445 233.075716,33.5479151 C233.633563,33.1863379 232.63656,34.9332795 230.617498,37.8869735 C227.577695,42.2571637 225.070682,46.5639031 226.447495,45.0354117 C226.723122,44.7297661 228.537772,42.654094 230.40913,40.4416266 C237.301108,32.4204432 241.235048,28.7534883 247.380592,24.8171644 C255.580806,19.5957309 268.648661,14.37654 278.535602,12.3827339 C294.688098,9.19329576 314.150748,11.9270622 330.402153,19.651135 C335.408266,22.0558015 344.303481,27.7975051 348.668664,31.4177623 C359.015862,40.0561729 364.242212,47.4020869 365.873551,55.667048 C366.485468,58.7715201 366.514481,59.7710351 365.940809,62.8165415 C365.251084,66.7644739 363.412696,72.1124132 360.845018,77.8134872 C359.845378,79.9795207 359.390397,81.2842854 359.819003,80.6968709 C360.25684,80.1496902 361.65871,78.3230723 362.922107,76.6492112 C366.172916,72.2795487 366.737356,72.377561 364.916112,76.9679163 C364.297601,78.5140843 363.817563,79.9074954 363.849214,80.0686948 C363.872952,80.1896602 365.23394,78.3709572 366.86396,75.9967629 C368.52563,73.5742879 369.806172,71.9810265 369.715176,72.3758461 C369.674293,72.8029848 369.559559,73.4957989 369.509445,73.8825717 C369.42768,74.3177571 370.317861,73.3039954 371.453336,71.6139089 C373.746706,68.3544374 374.685682,67.5826066 373.517237,69.9498095 C371.997995,73.0980771 372.45957,72.6718619 375.920066,67.6740233 C379.649594,62.3300414 382.565431,58.8221752 385.154208,56.6352993 L386.699826,55.3248622 L389.680283,57.6685843 L388.675368,56.1915394 C385.396865,51.2678366 379.515078,44.4283419 372.761572,37.6352809 C370.782074,35.6805742 368.987206,33.8147778 368.72213,33.5320853 C367.916351,32.6437742 372.203726,35.2321974 376.723207,38.3612056 L381.050145,41.3606738 L377.829669,38.4361329 C370.977254,32.2071377 364.784233,27.1884566 359.193898,23.3076686 L353.320023,19.2730684 L357.321221,20.4100382 C362.128198,21.8067472 368.00471,24.5839398 373.89441,28.2800478 C378.762051,31.256563 378.407297,30.9494664 371.624779,25.9215513 C363.714698,20.0691715 354.164046,15.043367 339.070536,8.72416878 C333.168967,6.24514214 324.813136,3.87369164 317.520247,2.63294492 C311.831003,1.66160686 312.380937,1.46934171 318.97355,2.136327 C330.949449,3.29039281 350.818285,8.08033446 360.508728,12.1150137 C363.936254,13.5328159 364.161766,13.6139432 364.066814,13.1302133 C363.946804,12.5253861 355.631856,9.72684969 346.478159,7.13607841 C326.184674,1.46666385 308.003885,-0.724321233 291.040335,0.488658838 C286.245228,0.849150392 271.12666,3.3315237 267.306136,4.37920059 Z" id="Path"></path>
                <path d="M280.562577,20.5277057 C277.280118,21.9715082 275.743731,23.1128311 272.514024,26.3056858 C269.07331,29.7077567 264.258421,36.3550523 265.714361,35.6489148 C266.247151,35.375984 267.742654,34.8714117 269.05089,34.487409 C271.273046,33.8393138 271.611974,33.856067 272.982193,34.6327786 C276.181569,36.3886904 277.881484,40.116062 276.928002,43.3623421 L276.49544,44.9975522 L277.464748,45.0157564 C278.021276,45.073403 278.714957,45.3972527 279.036741,45.7526299 C280.259256,47.2704363 275.737138,53.2735942 273.656093,52.9306169 C273.260457,52.841179 272.769868,52.2678792 272.473141,51.6143756 C272.080143,50.686622 271.838805,50.5248951 271.361404,50.8703787 C270.989506,51.1113862 269.962172,51.649201 269.081223,52.0744928 C265.775025,53.6069417 261.937357,52.2285688 260.324481,48.9445612 L259.545078,47.3390318 L258.484774,51.1088798 C257.180494,55.7647965 256.390541,61.1149784 256.303501,65.7815801 C256.166347,71.2540466 259.47782,87.6070717 261.7158,92.7783777 C266.375073,103.419644 273.048132,109.599831 282.55922,112.078501 C289.019954,113.776898 294.273999,114.038089 301.106632,112.940429 C309.36751,111.644239 316.512695,108.516154 324.083847,102.874178 C343.944771,88.0620443 349.5206,66.1424978 338.953164,44.2688574 C335.116814,36.3134992 329.589781,29.7809691 322.323267,24.6392119 C315.38777,19.683454 307.977509,16.9997886 301.084212,16.9366016 C296.918166,16.8793508 283.455994,19.2443111 280.562577,20.5277057 Z M291.403001,54.2018754 C294.169815,54.8284685 297.349409,57.7610562 297.810984,60.0995018 C298.018034,61.1476931 296.927398,61.3629773 296.390651,60.3382667 C295.675869,59.0551359 293.113467,57.3409091 291.846114,57.297905 C289.029186,57.2676966 287.649735,59.6343718 288.373749,63.3033054 C288.938189,66.1658466 290.933513,68.8298567 294.074863,70.9323075 L296.588469,72.6140834 L299.408035,71.8061081 C303.351206,70.7345679 306.253855,68.8627034 307.641218,66.536394 C308.622395,64.9183327 308.721304,64.3543989 308.402158,62.7416141 C307.885194,60.1210038 306.573001,59.2073651 304.027744,59.7098268 C302.97799,59.9170642 301.603814,60.3977601 300.925958,60.7832138 C298.556099,62.1725357 298.657645,60.3511943 301.069706,58.325122 C303.658483,56.1383779 306.605971,55.7658518 308.87824,57.2860327 C310.521448,58.3856707 310.586068,58.4987212 310.91049,60.9899236 C311.329864,63.9649877 310.695528,65.6401679 308.176646,68.3992883 C305.925477,70.8125293 303.014916,72.4344161 299.323632,73.2889572 L296.278555,74.0159371 L293.249302,71.849376 C289.382621,69.0522643 287.444004,66.6704189 286.523492,63.710393 C285.132172,59.2098715 286.404801,54.6022354 289.240192,53.8748598 C289.482848,53.8269748 290.435012,53.9740593 291.403001,54.2018754 Z M275.45228,65.2260888 C275.996938,72.2395786 278.936513,83.0948098 280.844797,85.1058439 C281.053166,85.3158515 280.703687,83.3322556 280.137928,80.6793263 C278.919369,75.3489316 278.688582,71.415114 279.358525,68.2247656 C279.784493,66.3397097 281.236477,63.9167071 281.727065,64.2803949 C281.864219,64.3371181 281.731022,65.7876482 281.468583,67.4313009 C280.250025,75.5049862 282.873091,81.1445881 289.771662,85.2699453 C291.286948,86.1437459 294.084094,87.3506302 296.027985,87.8464962 C298.916127,88.6586928 300.02127,88.7336202 302.637743,88.3845748 C306.603333,87.853092 308.374464,86.6236503 310.750917,82.7196454 C312.785804,79.4273272 315.073899,72.5247774 315.530199,68.2458719 C316.035294,63.9992855 316.76722,65.153404 316.856898,70.2879059 C316.924156,75.0918305 316.320152,79.9024827 315.262485,82.8340151 L314.448794,85.0890908 L315.84407,82.8030152 C317.270997,80.4686591 319.225438,74.6373856 319.979784,70.38328 C320.226397,69.0779876 320.590382,65.8226055 320.825126,63.1793059 L321.265601,58.4007089 L323.53787,59.9207578 C324.802586,60.8020776 326.614598,62.5388618 327.627426,63.8467925 C329.324704,66.0669108 329.484278,66.4542113 330.192466,70.2520252 C330.748994,73.2838125 330.846584,75.4844076 330.659316,78.9982099 L330.379734,83.7450155 L331.197381,82.7875813 C333.035769,80.6233946 336.463295,81.6221181 337.029055,84.4846593 C337.321825,86.1859585 337.005317,87.1282227 335.743238,88.17338 C334.043322,89.5561061 330.664591,88.3800898 330.24258,86.2433413 C330.15554,85.7998452 329.595056,87.2090862 329.01479,89.376043 C328.435842,91.5429999 327.557531,93.8946369 327.022103,94.5866595 C325.86289,96.1559125 322.860014,99.0108027 320.287061,101.068666 C313.596858,106.285351 299.464743,111.211956 292.498913,110.786004 C283.831849,110.235526 275.684386,105.309449 269.525654,96.8492543 C267.274485,93.7333056 266.563659,90.9832874 266.411999,84.8975511 C266.251107,76.2165322 270.638709,63.370054 274.030628,62.7003249 L275.242593,62.4610323 L275.45228,65.2260888 Z" id="Shape"></path>
                <path d="M52.9923986,112.207381 C55.5868471,113.873328 56.2954311,114.487521 55.5286887,114.429347 C54.9315422,114.379747 54.156887,114.281339 53.8179589,114.264454 C53.4788989,114.247701 54.1642722,114.531185 55.3255956,114.888409 C58.6805882,115.943328 67.000416,116.855911 72.5704423,116.803277 C79.432088,116.705133 89.2454414,114.767575 95.9045215,112.15422 C98.4823533,111.184518 102.029361,110.023408 103.806294,109.672516 C111.132284,108.10036 108.856059,108.047199 99.8755192,109.527146 C84.2804743,112.145514 69.7788352,113.500802 62.5152234,113.049918 C58.8591519,112.808383 53.9462768,111.725894 50.7614077,110.469674 C50.0277668,110.153871 51.0263519,110.961978 52.9923986,112.207381 Z" id="Path"></path>
                <path d="M266.024276,112.704039 C284.913253,118.483338 294.086732,120.31642 306.007242,120.76915 C309.172329,120.856609 328.223518,117.681431 330.251811,116.694316 C331.093197,116.276939 329.453946,116.474942 325.12437,117.287799 L318.783645,118.539666 L309.077377,117.188995 C303.72706,116.444074 293.656807,115.165165 286.701528,114.360355 C279.744929,113.555546 270.732343,112.319113 266.698175,111.649648 C262.703571,110.972004 259.28264,110.432738 259.121748,110.464661 C259.000419,110.488538 262.09693,111.510742 266.024276,112.704039 Z" id="Path"></path>
            </g>
            <g id="ANIMEJIKAN">
                <use fill="black" fill-opacity="1" filter="url(#filter-4)" xlink:href="#path-3"></use>
                <use fill="url(#linearGradient-2)" xlink:href="#path-3"></use>
            </g>
        </g>
    </g>
</svg>